# xmcd CD database file
#
# Track frame offsets:
#	150
#	32509
#	55171
#	71214
#	96380
#	126972
#	151602
#	173754
#	201862
#	221497
#
# Disc length: 3165 seconds
#
# Revision: 0
# Processed by: cddbd v1.5.1PL0 Copyright (c) Steve Scherf et al.
# Submitted via: CDex 1.51
#
DISCID=890c5b0a
DTITLE=Susan Weinert - Running Out Of Time
DYEAR=2004
DGENRE=Jazz
TTITLE0=See Eleven
TTITLE1=Change
TTITLE2=When The Water Bows
TTITLE3=Running Out Of Time
TTITLE4=Darkness
TTITLE5=What A Night
TTITLE6=They Only Come Out At Night
TTITLE7=Sooner
TTITLE8=Weather
TTITLE9=Just Do It
EXTD=YEAR: 2004
EXTT0=
EXTT1=
EXTT2=
EXTT3=
EXTT4=
EXTT5=
EXTT6=
EXTT7=
EXTT8=
EXTT9=
PLAYORDER=
